<svg xmlns:dc="http://purl.org/dc/elements/1.1/" xmlns:cc="http://creativecommons.org/ns#" xmlns:rdf="http://www.w3.org/1999/02/22-rdf-syntax-ns#" xmlns:svg="http://www.w3.org/2000/svg" xmlns="http://www.w3.org/2000/svg" xmlns:sodipodi="http://sodipodi.sourceforge.net/DTD/sodipodi-0.dtd" xmlns:inkscape="http://www.inkscape.org/namespaces/inkscape" width="210mm" height="297mm" viewBox="0 0 210 297" version="1.1" id="svgLogo" docname="rechtswinkel-poster.svg" style="transform: matrix(1, 0, 0, 1, 0, 0); backface-visibility: hidden; transform-origin: 50% 50% 0px; transition: transform 200ms ease-in-out;">
  <defs id="defs4839" style="fill: rgb(0, 0, 0);"></defs>
  <sodipodi:namedview id="base" pagecolor="#ffffff" bordercolor="#666666" borderopacity="1.0" pageopacity="0.0" pageshadow="2" zoom="0.175" cx="2164.1874" cy="-309.40284" document-units="mm" current-layer="layer1" showgrid="false" snap-page="true" window-width="1920" window-height="1017" window-x="-8" window-y="-8" window-maximized="1"></sodipodi:namedview>
  <metadata id="metadata4842" style="fill: rgb(0, 0, 0);">
    <rdf:RDF>
      <cc:Work about="">
        <dc:format>image/svg+xml</dc:format>
        <dc:type resource="http://purl.org/dc/dcmitype/StillImage"></dc:type>
        <dc:title></dc:title>
      </cc:Work>
    </rdf:RDF>
  </metadata>
  <g label="Layer 1" groupmode="layer" id="layer1">
    <rect style="fill:#67a2d9;fill-opacity:1;stroke:none;stroke-width:40;stroke-linecap:round;stroke-linejoin:round;stroke-miterlimit:4;stroke-dasharray:none;stroke-opacity:1;paint-order:stroke fill markers" id="rect4544" width="210" height="297" x="0" y="0" export-xdpi="241.90475" export-ydpi="241.90475"></rect>
    <path style="fill:#f5d4b8;fill-opacity:1;stroke:#b2b2b2;stroke-width:4.66223621;stroke-linecap:round;stroke-linejoin:round;stroke-miterlimit:4;stroke-dasharray:none;stroke-opacity:1;paint-order:stroke fill markers" d="m 137.96776,148.62207 h 13.41397 v 47.34434 h -13.41397 z" id="rect952" connector-curvature="0" nodetypes="ccccc"></path>
    <path style="fill:#0079ea;fill-opacity:1;stroke:#3d3d3d;stroke-width:3.1580596;stroke-linecap:round;stroke-linejoin:round;stroke-miterlimit:4;stroke-dasharray:none;stroke-opacity:1;paint-order:stroke fill markers" d="m 125.14006,165.06253 h 10.57821 l 0.35286,11.06416 8.60356,8.65732 8.91014,-7.22329 -0.29528,-12.49819 h 10.34323 c 3.2746,0 5.91083,2.63622 5.91083,5.91081 v 56.23899 c 0,3.27462 -2.63623,5.91085 -5.91083,5.91085 h -38.49255 c -3.2746,0 -5.91085,-2.63623 -5.91085,-5.91085 v -56.23899 c 0,-3.27459 2.63625,-5.91081 5.91085,-5.91081 z" id="rect21" connector-curvature="0" nodetypes="scccccssssssss"></path>
    <path style="fill:#0079ea;fill-opacity:1;stroke:#3d3d3d;stroke-width:2.33111811;stroke-linecap:butt;stroke-linejoin:miter;stroke-miterlimit:4;stroke-dasharray:none;stroke-opacity:1" d="m 136.56906,160.84997 -12.69505,7.42546 6.89684,3.94148 -3.91647,4.18145 17.82031,14.44655 17.82031,-14.44655 -3.91601,-4.18145 6.89639,-3.94148 -12.69505,-7.42546 0.35788,12.88489 -8.46352,8.38841 -8.46352,-8.38841 z" id="path935" connector-curvature="0"></path>
    <path style="fill:none;stroke:#3d3d3d;stroke-width:2.33111811;stroke-linecap:butt;stroke-linejoin:miter;stroke-miterlimit:4;stroke-dasharray:none;stroke-opacity:1" d="m 144.67469,182.12327 v 8.72164" id="path1123" connector-curvature="0"></path>
    <circle style="fill:#f5d4b8;fill-opacity:1;stroke:#3d3d3d;stroke-width:2.56427002;stroke-linecap:round;stroke-linejoin:round;stroke-miterlimit:4;stroke-dasharray:none;stroke-opacity:1;paint-order:stroke fill markers" id="path833-5" cx="170.31696" cy="136.8716" r="3.9962654"></circle>
    <circle style="fill:#f5d4b8;fill-opacity:1;stroke:#3d3d3d;stroke-width:2.56427002;stroke-linecap:round;stroke-linejoin:round;stroke-miterlimit:4;stroke-dasharray:none;stroke-opacity:1;paint-order:stroke fill markers" id="path833-5-2" cx="119.03238" cy="136.8716" r="3.9962654"></circle>
    <circle style="fill:#f5d4b8;fill-opacity:1;stroke:#3d3d3d;stroke-width:4.66220713;stroke-linecap:round;stroke-linejoin:round;stroke-miterlimit:4;stroke-dasharray:none;stroke-opacity:1;paint-order:stroke fill markers" id="path833" cx="144.67467" cy="136.8716" r="23.31118"></circle>
    <path style="fill:#7f4630;fill-opacity:1;stroke:#3d3d3d;stroke-width:4.66223621;stroke-linecap:round;stroke-linejoin:round;stroke-miterlimit:4;stroke-dasharray:none;stroke-opacity:1;paint-order:stroke fill markers" d="m 144.75932,90.837967 c -8.28035,5.8e-5 -14.99285,6.712577 -14.99292,14.992913 0.005,1.51344 0.23999,3.01733 0.69571,4.46054 l -0.0223,-0.0163 c -8.32189,6.06553 -9.99836,13.01682 -11.83544,19.947 l 2.92846,-0.61602 c 0,0 21.18961,-12.1962 29.46667,-12.1962 8.27708,0 16.98631,12.1962 16.98631,12.1962 l 2.92848,0.61602 c -1.83709,-6.93018 -3.51355,-13.88147 -11.83545,-19.947 l -0.003,0.001 c 0.44725,-1.43947 0.6749,-2.93816 0.67522,-4.44552 -8e-5,-8.280336 -6.71258,-14.992844 -14.99293,-14.992913 z" id="path833-6" connector-curvature="0" nodetypes="cccccczcccccc"></path>
    <path style="fill:#3d3d3d;fill-opacity:1;stroke-width:0.38569921" d="m 142.6915,151.14967 c -0.84726,-0.93622 -0.81184,-2.87506 0.0669,-3.67042 0.93619,-0.84725 2.87504,-0.81184 3.67043,0.0669 0.80752,0.89236 0.82509,2.90981 0.0322,3.70267 -0.82919,0.82918 -2.98076,0.77252 -3.7697,-0.0994 z m 0.13319,-7.79922 c 0,-1.39478 0.75151,-2.96555 1.92848,-4.0307 2.1105,-1.90995 2.41414,-4.58782 0.57264,-5.04999 -1.54751,-0.38843 -2.74749,0.11836 -3.27054,1.38098 -0.44221,1.06763 -0.63408,1.16198 -2.36301,1.16198 -1.78444,0 -1.88171,-0.0533 -1.88171,-1.0353 0,-0.56943 0.34717,-1.75244 0.77144,-2.6289 1.07215,-2.21473 3.0641,-3.27839 6.13964,-3.27839 3.98994,0 6.09675,1.36262 6.47576,4.18833 0.3509,2.61617 -0.13992,3.95723 -2.3943,6.54215 -1.16679,1.33788 -2.12146,2.76856 -2.12146,3.17929 0,0.63904 -0.27823,0.74682 -1.92846,0.74682 -1.89262,0 -1.92848,-0.0224 -1.92848,-1.17627 z" id="path1146" connector-curvature="0"></path>
    <path style="fill:#f9fbff;fill-opacity:1;stroke:#b2b2b2;stroke-width:4.66223621;stroke-linecap:round;stroke-linejoin:round;stroke-miterlimit:4;stroke-dasharray:none;stroke-opacity:1;paint-order:stroke fill markers" d="m 58.618349,152.93583 h 13.41397 v 41.10773 h -13.41397 z" id="rect952-8" connector-curvature="0" nodetypes="ccccc"></path>
    <circle style="fill:#f0ba8e;fill-opacity:1;stroke:#3d3d3d;stroke-width:4.66200113;stroke-linecap:round;stroke-linejoin:round;stroke-miterlimit:4;stroke-dasharray:none;stroke-opacity:1;paint-order:stroke fill markers" id="path833-2-8" cx="65.347397" cy="159.74097" r="4.6023126"></circle>
    <circle style="fill:#f0ba8e;fill-opacity:1;stroke:#3d3d3d;stroke-width:2.56427002;stroke-linecap:round;stroke-linejoin:round;stroke-miterlimit:4;stroke-dasharray:none;stroke-opacity:1;paint-order:stroke fill markers" id="path833-5-0" cx="90.967613" cy="135.91835" r="3.9962654"></circle>
    <circle style="fill:#f0ba8e;fill-opacity:1;stroke:#3d3d3d;stroke-width:2.56427002;stroke-linecap:round;stroke-linejoin:round;stroke-miterlimit:4;stroke-dasharray:none;stroke-opacity:1;paint-order:stroke fill markers" id="path833-5-2-8" cx="39.683044" cy="135.91835" r="3.9962654"></circle>
    <circle style="fill:#f0ba8e;fill-opacity:1;stroke:#3d3d3d;stroke-width:4.66200066;stroke-linecap:round;stroke-linejoin:round;stroke-miterlimit:4;stroke-dasharray:none;stroke-opacity:1;paint-order:stroke fill markers" id="path833-2" cx="65.325325" cy="135.91835" r="23.31118"></circle>
    <path style="fill:#3d3d3d;fill-opacity:1;stroke-width:0.38569921" d="m 63.342159,150.19644 c -0.84725,-0.93623 -0.81184,-2.87506 0.0669,-3.67043 0.93619,-0.84725 2.87504,-0.81184 3.67043,0.0669 0.80752,0.89235 0.82509,2.90981 0.0322,3.70267 -0.82919,0.82917 -2.98076,0.77252 -3.7697,-0.0995 z m 0.13319,-7.79923 c 0,-1.39477 0.75152,-2.96554 1.92848,-4.03069 2.1105,-1.90995 2.41415,-4.58783 0.57264,-5.04999 -1.5475,-0.38843 -2.74749,0.11836 -3.27054,1.38098 -0.44221,1.06762 -0.63407,1.16197 -2.363,1.16197 -1.78445,0 -1.88171,-0.0533 -1.88171,-1.0353 0,-0.56943 0.34717,-1.75243 0.77143,-2.62889 1.07216,-2.21473 3.06411,-3.27839 6.13965,-3.27839 3.98993,0 6.09674,1.36261 6.47576,4.18833 0.3509,2.61616 -0.13992,3.95723 -2.39431,6.54214 -1.16679,1.33788 -2.12145,2.76857 -2.12145,3.17929 0,0.63905 -0.27823,0.74683 -1.92847,0.74683 -1.89261,0 -1.92848,-0.0225 -1.92848,-1.17628 z" id="path1146-4" connector-curvature="0"></path>
    <path style="fill:#6b6189;fill-opacity:1;stroke:#3d3d3d;stroke-width:3.15799999;stroke-linecap:round;stroke-linejoin:round;stroke-miterlimit:4;stroke-dasharray:none;stroke-opacity:1;paint-order:stroke fill markers" d="m 45.781439,165.06253 h 10.5782 l 0.35286,11.06416 8.60351,19.83972 8.91009,-18.40569 -0.29528,-12.49819 h 10.34317 c 3.27458,0 5.9108,2.63622 5.9108,5.91081 v 56.23899 c 0,3.27462 -2.63622,5.91085 -5.9108,5.91085 h -38.49238 c -3.274599,0 -5.910849,-2.63623 -5.910849,-5.91085 v -56.23899 c 0,-3.27459 2.63625,-5.91081 5.910849,-5.91081 z" id="rect21-6" connector-curvature="0" nodetypes="ccccccssssssssc"></path>
    <path style="fill:#ba7070;fill-opacity:1;stroke:#3d3d3d;stroke-width:1.97387421;stroke-linecap:butt;stroke-linejoin:miter;stroke-miterlimit:4;stroke-dasharray:none;stroke-opacity:1" d="m 63.273299,171.24152 -2.19664,31.60442 h 8.17927 l -1.62197,-31.60442 z" id="path4603" connector-curvature="0" nodetypes="ccccc"></path>
    <path nodetypes="cccccccc" style="fill:#6b6189;fill-opacity:1;stroke:#3d3d3d;stroke-width:2.33100033;stroke-linecap:butt;stroke-linejoin:miter;stroke-miterlimit:4;stroke-dasharray:none;stroke-opacity:1" d="m 65.185239,200.00015 14.61308,-23.13281 -2.57966,-4.18145 4.5206,-3.94148 -8.44838,-7.42546 0.35788,12.88489 -8.46352,17.07467 z" id="path935-8" connector-curvature="0"></path>
    <text xml:space="preserve" style="font-style:normal;font-weight:normal;font-size:25.7512207px;line-height:1.25;font-family:sans-serif;letter-spacing:0px;word-spacing:0px;fill:#ffffff;fill-opacity:1;stroke:none;stroke-width:0.64378047" x="15.740883" y="57.251671" id="text4504" export-xdpi="92.36364" export-ydpi="92.36364"><tspan role="line" x="15.740883" y="57.251671" style="font-style:normal;font-variant:normal;font-weight:900;font-stretch:normal;font-family:roboto;-inkscape-font-specification:'roboto Heavy';letter-spacing:-0.63468784px;fill:#ffffff;fill-opacity:1;stroke-width:0.64378047" id="tspan4542" dy="6.7148805">De Rechtswinkel</tspan><tspan role="line" x="15.740883" y="89.625854" style="font-style:normal;font-variant:normal;font-weight:900;font-stretch:normal;font-family:roboto;-inkscape-font-specification:'roboto Heavy';letter-spacing:-0.63468784px;fill:#ffffff;fill-opacity:1;stroke-width:0.64378047" id="tspan4588">zoekt jouw!</tspan><tspan role="line" x="15.740883" y="121.81488" style="font-style:normal;font-variant:normal;font-weight:900;font-stretch:normal;font-family:roboto;-inkscape-font-specification:'roboto Heavy';letter-spacing:-0.63468784px;fill:#ffffff;fill-opacity:1;stroke-width:0.64378047" id="tspan4506"></tspan></text>
    <path nodetypes="cccccccc" style="fill:#6b6189;fill-opacity:1;stroke:#3d3d3d;stroke-width:2.33100057;stroke-linecap:butt;stroke-linejoin:miter;stroke-miterlimit:4;stroke-dasharray:none;stroke-opacity:1" d="m 65.185239,200.00015 -14.61308,-23.13281 2.57967,-4.18145 -4.52061,-3.94148 8.44838,-7.42546 -0.35788,12.88489 8.46352,17.07467 z" id="path935-8-4" connector-curvature="0"></path>
    <rect style="fill:#67a2d9;fill-opacity:1;stroke:none;stroke-width:73.92060089;stroke-linecap:round;stroke-linejoin:round;stroke-miterlimit:4;stroke-dasharray:none;stroke-opacity:1;paint-order:stroke fill markers" id="rect4510" width="198.50023" height="74.489044" x="2.8063281" y="182.08449" export-xdpi="92.36364" export-ydpi="92.36364"></rect>
    <text xml:space="preserve" style="font-style:normal;font-weight:normal;font-size:10.58333302px;line-height:1.25;font-family:sans-serif;letter-spacing:0px;word-spacing:0px;fill:#3d3d3d;fill-opacity:1;stroke:none;stroke-width:0.26458332" x="37.480682" y="202.14658" id="text4592" export-xdpi="92.36364" export-ydpi="92.36364"><tspan role="line" id="tspan4590" x="37.480682" y="202.14658" style="font-style:normal;font-variant:normal;font-weight:500;font-stretch:normal;font-family:roboto;-inkscape-font-specification:'roboto Medium';fill:#3d3d3d;fill-opacity:1;stroke-width:0.26458332">Studie in praktijk brengen?</tspan><tspan role="line" x="37.480682" y="215.45184" style="font-style:normal;font-variant:normal;font-weight:500;font-stretch:normal;font-family:roboto;-inkscape-font-specification:'roboto Medium';fill:#3d3d3d;fill-opacity:1;stroke-width:0.26458332" id="tspan4596">Mensen helpen?</tspan><tspan role="line" x="37.480682" y="228.7571" style="font-style:normal;font-variant:normal;font-weight:500;font-stretch:normal;font-family:roboto;-inkscape-font-specification:'roboto Medium';fill:#3d3d3d;fill-opacity:1;stroke-width:0.26458332" id="tspan4600">Werken met een hecht team?</tspan></text>
    <g id="g4700" transform="translate(-8.8277763,-35.704716)">
      <text id="text4630" y="289.25446" x="74.574753" style="font-style:normal;font-weight:normal;font-size:4.80514479px;line-height:1.25;font-family:sans-serif;letter-spacing:0px;word-spacing:0px;fill:#40403f;fill-opacity:1;stroke:none;stroke-width:0.12012862" xml:space="preserve" export-xdpi="92.36364" export-ydpi="92.36364"><tspan style="font-style:normal;font-variant:normal;font-weight:500;font-stretch:normal;font-family:roboto;-inkscape-font-specification:'roboto Medium';fill:#40403f;fill-opacity:1;stroke-width:0.12012862" y="289.25446" x="74.574753" id="tspan4628" role="line">Wil je graag porno kijken?</tspan><tspan id="tspan4638" style="font-style:normal;font-variant:normal;font-weight:500;font-stretch:normal;font-family:roboto;-inkscape-font-specification:'roboto Medium';fill:#40403f;fill-opacity:1;stroke-width:0.12012862" y="295.29544" x="74.574753" role="line">Stuur dan je CV, cijferlijst en motivatiebrief naar</tspan><tspan id="tspan4640" style="font-style:normal;font-variant:normal;font-weight:500;font-stretch:normal;font-family:roboto;-inkscape-font-specification:'roboto Medium';fill:#40403f;fill-opacity:1;stroke-width:0.12012862" y="301.30188" x="74.574753" role="line"></tspan><tspan id="tspan4642" style="font-style:normal;font-variant:normal;font-weight:500;font-stretch:normal;font-family:roboto;-inkscape-font-specification:'roboto Medium';fill:#40403f;fill-opacity:1;stroke-width:0.12012862" y="307.34283" x="74.574753" role="line">bestuur@rechtswinkelnijmegen.nl</tspan></text>
      <path connector-curvature="0" id="path4692" d="m 53.780067,304.99516 c -1.520529,-1.17723 -2.29465,-1.83598 -2.341964,-1.99295 -0.03887,-0.12895 -0.07067,-0.74998 -0.07067,-1.38007 0,-0.89541 0.03073,-1.17531 0.140679,-1.28153 0.07738,-0.0747 1.427881,-0.43729 3.001127,-0.80563 1.573249,-0.36835 3.036063,-0.71365 3.250697,-0.76733 0.35918,-0.0899 0.40974,-0.14257 0.635093,-0.6622 0.237354,-0.54729 0.241529,-0.58936 0.136345,-1.37429 -0.07421,-0.55379 -0.08306,-1.20993 -0.02801,-2.07584 0.10059,-1.58237 0.0983,-3.89046 -0.0047,-4.67436 l -0.07809,-0.59469 -0.759929,0.067 c -1.152487,0.10158 -1.585033,0.24847 -3.060808,1.03951 -0.746211,0.39997 -1.451375,0.77217 -1.567033,0.82709 -0.115654,0.0549 -0.210612,0.12881 -0.211016,0.16417 -3.55e-4,0.0354 0.533317,1.2493 1.186037,2.69763 l 1.186771,2.63334 -0.118335,0.39497 c -0.273395,0.91251 -1.285396,1.4521 -2.553308,1.36138 -0.815666,-0.0583 -1.431655,-0.36461 -1.806695,-0.89823 -0.447404,-0.63658 -0.407927,-0.80347 0.824725,-3.48671 0.604253,-1.31534 1.121076,-2.47907 1.148494,-2.58606 0.02927,-0.11418 -0.01075,-0.24482 -0.09685,-0.31628 -0.08069,-0.067 -0.146706,-0.22047 -0.146706,-0.34111 0,-0.23308 0.630938,-0.64992 2.485311,-1.64197 0.929705,-0.49738 1.963542,-0.7417 3.13846,-0.7417 0.345719,0 0.655035,-0.0264 0.687366,-0.0588 0.03232,-0.0324 -0.0042,-0.18059 -0.08119,-0.32946 -0.132598,-0.25641 -0.126225,-0.2879 0.120971,-0.5977 0.14352,-0.17988 0.305804,-0.32704 0.360629,-0.32704 0.05483,0 0.218226,0.12372 0.363102,0.27494 0.239575,0.25006 0.253896,0.30226 0.158226,0.57671 -0.05785,0.16596 -0.105194,0.33766 -0.105194,0.38154 0,0.0439 0.411483,0.08 0.914407,0.0804 1.185846,7.1e-4 2.635192,0.22197 3.140733,0.47946 0.469456,0.23909 0.855631,0.51614 1.598534,1.14679 0.689453,0.58527 0.783723,0.75298 0.589714,1.04906 -0.08104,0.12369 -0.147343,0.28061 -0.147343,0.34872 0,0.0681 0.50644,1.23926 1.125422,2.60253 0.618984,1.36328 1.125425,2.5724 1.125425,2.68692 0,0.5409 -0.426307,1.1216 -1.078531,1.46914 -0.305954,0.16303 -0.53946,0.2003 -1.266101,0.20205 -0.800394,0.002 -0.938627,-0.0243 -1.359887,-0.25767 -0.493183,-0.27326 -0.840243,-0.68924 -0.979158,-1.17361 -0.07353,-0.25637 0.0508,-0.58774 1.081088,-2.88126 0.640293,-1.42536 1.16295,-2.64121 1.161454,-2.7019 -0.0054,-0.21702 -2.037718,-1.64595 -2.552924,-1.79491 -0.510684,-0.14766 -1.970887,-0.32735 -2.683056,-0.33018 -0.392062,-0.002 -0.406294,0.008 -0.348459,0.2386 0.03315,0.13213 -0.01,0.49067 -0.09587,0.79678 -0.171359,0.61072 -0.153458,2.02384 0.0522,4.12119 0.08521,0.86901 0.08001,1.26071 -0.0268,2.01638 -0.115917,0.82025 -0.115159,0.98195 0.0061,1.28955 0.07622,0.19343 0.177735,0.35169 0.225585,0.35169 0.04785,0 0.439631,-0.0884 0.870627,-0.19654 l 0.783635,-0.19653 2.331331,1.33733 c 1.282236,0.73555 2.34691,1.34952 2.365946,1.3644 0.0567,0.0443 -0.247463,0.31733 -0.353514,0.31733 -0.09058,0 -7.783472,2.18865 -8.731376,2.4841 -0.232118,0.0724 -0.590845,0.17483 -0.797173,0.22774 l -0.375143,0.0962 0.01319,0.65926 c 0.0072,0.3626 -0.02428,0.65926 -0.07003,0.65926 -0.04576,0 -0.07866,-0.29778 -0.07313,-0.66174 0.0055,-0.36396 -0.0051,-0.67495 -0.02375,-0.69109 -0.01861,-0.0161 -0.856794,-0.6108 -1.862643,-1.32147 -1.005848,-0.71068 -1.929461,-1.37037 -2.052478,-1.46599 -0.123016,-0.0956 -0.260176,-0.17383 -0.304799,-0.17383 -0.04462,0 -0.08114,0.51964 -0.08114,1.15476 0,1.3585 -0.174539,1.10386 1.781921,2.59976 0.696356,0.53242 1.533302,1.17517 1.859884,1.42833 0.326582,0.25315 0.611078,0.44299 0.632218,0.42184 0.02113,-0.0211 0.04433,-0.29906 0.05153,-0.61761 0.01879,-0.83096 0.176144,-0.71704 0.176144,0.12752 0,0.65787 0.01194,0.70029 0.173064,0.61407 0.09518,-0.051 0.288569,-0.11357 0.429741,-0.13917 0.141176,-0.0256 0.432578,-0.10888 0.647559,-0.18508 0.214983,-0.0762 0.791813,-0.26264 1.281839,-0.41434 1.974677,-0.61127 3.520062,-1.09867 5.430155,-1.71261 1.287489,-0.41381 2.056707,-0.61725 2.145661,-0.56747 0.189314,0.10594 0.173158,0.11282 -1.526664,0.64949 -6.624796,2.09161 -8.675019,2.73655 -8.6993,2.73655 -0.01545,0 -1.050149,-0.79131 -2.299359,-1.75848 z m 6.365676,-4.33863 c 0.185696,-0.0516 0.407492,-0.17099 0.492875,-0.26533 0.145965,-0.16129 0.118689,-0.25071 -0.456293,-1.49632 l -0.611533,-1.3248 0.107455,-0.68365 c 0.07379,-0.46948 0.08323,-1.15375 0.03013,-2.18421 -0.09423,-1.82862 -0.09315,-3.94398 0.0025,-4.64827 0.05921,-0.43649 0.03613,-0.60223 -0.141272,-1.01461 -0.204515,-0.47541 -0.206398,-0.50472 -0.05302,-0.82634 0.149521,-0.31355 0.149506,-0.34395 -1.88e-4,-0.5094 -0.08761,-0.0968 -0.194934,-0.17597 -0.238518,-0.17597 -0.04359,0 -0.07925,2.97535 -0.07925,6.61187 v 6.61187 l 0.304803,-7.2e-4 c 0.167641,-2.7e-4 0.456738,-0.0427 0.642438,-0.0943 z m 6.637003,-2.43253 c 0.37524,-0.19305 0.921306,-0.72151 0.834864,-0.80795 -0.03013,-0.0301 -0.184846,0.0124 -0.343808,0.0947 -0.728103,0.37652 -2.548549,0.38061 -3.440959,0.008 -0.351646,-0.14693 -0.392491,-0.10072 -0.17961,0.20321 0.201172,0.28722 0.719615,0.58524 1.189667,0.68389 0.563491,0.11825 1.533563,0.0275 1.939846,-0.18157 z m -14.055429,-1.42498 v -0.85742 l -0.566303,0.0592 c -1.062611,0.11106 -1.813604,0.58277 -1.590752,0.99918 0.179911,0.33616 0.979441,0.6399 1.711575,0.65021 l 0.44548,0.006 z m 1.38822,0.71358 c 0.922513,-0.27396 1.18839,-0.74655 0.626965,-1.11441 -0.283291,-0.18563 -1.199712,-0.42988 -1.612854,-0.42988 H 52.8211 v 0.84407 0.84407 h 0.405015 c 0.222756,0 0.622996,-0.0648 0.889422,-0.14385 z m 11.366577,-0.71333 v -0.8572 l -0.492371,0.0558 c -1.028665,0.11657 -1.664688,0.44536 -1.664688,0.86057 0,0.39176 0.836288,0.7668 1.758472,0.7886 l 0.398587,0.009 z m 1.394967,0.72081 c 0.542068,-0.14427 0.949667,-0.45211 0.949667,-0.71724 0,-0.35932 -0.66842,-0.68096 -1.664689,-0.80102 l -0.492372,-0.0593 v 0.85698 0.85698 l 0.351695,-8.5e-4 c 0.193432,-7.1e-4 0.578496,-0.0615 0.855699,-0.13526 z m -15.377513,-1.51614 c 0.22742,-0.0712 0.576924,-0.12941 0.776672,-0.12941 0.208489,0 0.382793,-0.0512 0.409225,-0.11999 0.02534,-0.066 0.03456,-0.93987 0.02049,-1.94195 l -0.02556,-1.82196 -0.929298,2.05918 c -0.511111,1.13256 -0.950622,2.09801 -0.976682,2.14546 -0.02748,0.0501 0.02801,0.0552 0.132123,0.0122 0.09873,-0.0408 0.365579,-0.13234 0.593,-0.20351 z m 3.261926,0.12851 c -0.329131,-0.78476 -1.79849,-3.98504 -1.861121,-4.05354 -0.04871,-0.0533 -0.07272,0.70605 -0.05784,1.82881 l 0.02545,1.91992 0.568021,0.0627 c 0.312411,0.0345 0.713341,0.12599 0.89096,0.20337 0.407898,0.17772 0.49609,0.18558 0.434517,0.0388 z m 10.134465,-0.22998 0.586155,-0.0551 v -1.92466 c 0,-1.05857 -0.01683,-1.90709 -0.03743,-1.88559 -0.06526,0.0682 -1.838279,4.06083 -1.838279,4.13965 0,0.0415 0.158261,0.009 0.351692,-0.072 0.193434,-0.081 0.615466,-0.1721 0.937855,-0.20238 z m 1.852189,-1.5462 c -0.449359,-0.99611 -0.874148,-1.91663 -0.943981,-2.04559 -0.110402,-0.20386 -0.127461,0.0135 -0.130726,1.6647 l -0.0037,1.89915 0.398589,0.005 c 0.219221,0.003 0.630705,0.0805 0.914406,0.17178 0.2837,0.0913 0.530817,0.15466 0.549148,0.14071 0.01833,-0.014 -0.334326,-0.84037 -0.783682,-1.83649 z m -1.000554,-3.34405 c 0.0229,-0.16101 -0.07348,-0.30794 -0.368551,-0.56176 -1.185976,-1.02024 -1.917416,-1.44662 -2.743672,-1.59936 -0.674633,-0.12471 -3.061729,-0.25004 -3.061729,-0.16076 0,0.0362 0.06439,0.19033 0.143086,0.34252 0.132204,0.25565 0.182421,0.2767 0.660193,0.2767 0.77735,0 2.251425,0.1817 2.668841,0.32898 0.393435,0.13881 1.154483,0.6383 1.920537,1.26049 0.512856,0.41654 0.733592,0.44853 0.781295,0.11319 z" style="fill:#000000;stroke-width:0.09378531" export-xdpi="92.36364" export-ydpi="92.36364"></path>
    </g>
    <rect style="fill:#ba7070;fill-opacity:1;stroke:#3d3d3d;stroke-width:1.97387421;stroke-miterlimit:4;stroke-dasharray:none;stroke-opacity:1" id="rect4597" width="6.1669064" height="6.1669064" x="162.74356" y="70.178146" ry="1.6973135" transform="rotate(45)"></rect>
    <path style="fill:#434343;fill-opacity:1;stroke:#3d3d3d;stroke-width:4.66223621;stroke-linecap:round;stroke-linejoin:round;stroke-miterlimit:4;stroke-dasharray:none;stroke-opacity:1;paint-order:stroke fill markers" d="m 40.757871,129.96839 c 11.839918,-1.96952 19.426118,-12.24556 30.807638,-12.81222 8.27708,0 12.08656,4.35587 12.08656,4.35587 l 3.94311,7.51682 c -0.91053,-3.43485 -0.38474,-16.69772 -7.32485,-16.63818 -6.94011,0.0596 -7.54835,-8.39733 -24.31343,-4.7999 -11.09692,2.38116 -12.801533,12.69069 -15.199028,22.37761 z" id="path833-6-0" connector-curvature="0" nodetypes="cccczsc"></path>
  </g>
</svg>