<?xml version="1.0" encoding="UTF-8" standalone="no"?>
<!-- Created with Inkscape (http://www.inkscape.org/) -->

<svg
   xmlns:dc="http://purl.org/dc/elements/1.1/"
   xmlns:cc="http://creativecommons.org/ns#"
   xmlns:rdf="http://www.w3.org/1999/02/22-rdf-syntax-ns#"
   xmlns:svg="http://www.w3.org/2000/svg"
   xmlns="http://www.w3.org/2000/svg"
   xmlns:sodipodi="http://sodipodi.sourceforge.net/DTD/sodipodi-0.dtd"
   xmlns:inkscape="http://www.inkscape.org/namespaces/inkscape"
   width="417.36807mm"
   height="204.12265mm"
   viewBox="0 0 1478.8632 723.26923"
   id="svg2"
   version="1.1"
   inkscape:version="0.91 r13725"
   sodipodi:docname="logotool_banner.svg">
  <defs
     id="defs4">
    <filter
       style="color-interpolation-filters:sRGB"
       inkscape:label="Drop Shadow"
       id="filter4246">
      <feFlood
         flood-opacity="0.498039"
         flood-color="rgb(0,0,0)"
         result="flood"
         id="feFlood4248" />
      <feComposite
         in="flood"
         in2="SourceGraphic"
         operator="in"
         result="composite1"
         id="feComposite4250" />
      <feGaussianBlur
         in="composite1"
         stdDeviation="9.9"
         result="blur"
         id="feGaussianBlur4252" />
      <feOffset
         dx="1.8"
         dy="2.3"
         result="offset"
         id="feOffset4254" />
      <feComposite
         in="SourceGraphic"
         in2="offset"
         operator="over"
         result="composite2"
         id="feComposite4256" />
    </filter>
    <filter
       style="color-interpolation-filters:sRGB"
       inkscape:label="Drop Shadow"
       id="filter4258">
      <feFlood
         flood-opacity="0.498039"
         flood-color="rgb(0,0,0)"
         result="flood"
         id="feFlood4260" />
      <feComposite
         in="flood"
         in2="SourceGraphic"
         operator="in"
         result="composite1"
         id="feComposite4262" />
      <feGaussianBlur
         in="composite1"
         stdDeviation="9.9"
         result="blur"
         id="feGaussianBlur4264" />
      <feOffset
         dx="1.8"
         dy="2.3"
         result="offset"
         id="feOffset4266" />
      <feComposite
         in="SourceGraphic"
         in2="offset"
         operator="over"
         result="composite2"
         id="feComposite4268" />
    </filter>
  </defs>
  <sodipodi:namedview
     id="base"
     pagecolor="#ffffff"
     bordercolor="#666666"
     borderopacity="1.0"
     inkscape:pageopacity="0.0"
     inkscape:pageshadow="2"
     inkscape:zoom="0.24748738"
     inkscape:cx="-1512.0313"
     inkscape:cy="1278.2069"
     inkscape:document-units="px"
     inkscape:current-layer="g6603"
     showgrid="false"
     inkscape:snap-bbox="true"
     inkscape:bbox-paths="true"
     inkscape:bbox-nodes="true"
     inkscape:snap-bbox-edge-midpoints="true"
     inkscape:snap-bbox-midpoints="true"
     inkscape:object-paths="true"
     inkscape:snap-intersection-paths="true"
     inkscape:object-nodes="true"
     inkscape:snap-smooth-nodes="true"
     inkscape:snap-midpoints="true"
     inkscape:snap-object-midpoints="true"
     inkscape:snap-center="true"
     inkscape:snap-text-baseline="true"
     inkscape:snap-page="true"
     inkscape:window-width="1920"
     inkscape:window-height="1017"
     inkscape:window-x="-8"
     inkscape:window-y="-8"
     inkscape:window-maximized="1"
     fit-margin-top="0"
     fit-margin-left="0"
     fit-margin-right="0"
     fit-margin-bottom="0" />
  <metadata
     id="metadata7">
    <rdf:RDF>
      <cc:Work
         rdf:about="">
        <dc:format>image/svg+xml</dc:format>
        <dc:type
           rdf:resource="http://purl.org/dc/dcmitype/StillImage" />
        <dc:title />
      </cc:Work>
    </rdf:RDF>
  </metadata>
  <g
     inkscape:label="Laag 1"
     inkscape:groupmode="layer"
     id="layer1"
     transform="translate(1967.7771,58.8056)">
    <text
       xml:space="preserve"
       style="font-style:normal;font-weight:normal;font-size:352.65591431px;line-height:125%;font-family:sans-serif;letter-spacing:0px;word-spacing:0px;fill:#ffffff;fill-opacity:1;stroke:none;stroke-width:1px;stroke-linecap:butt;stroke-linejoin:miter;stroke-opacity:1;filter:url(#filter4258)"
       x="-1852.463"
       y="274.25143"
       id="text4136"
       sodipodi:linespacing="125%"><tspan
         sodipodi:role="line"
         id="tspan4138"
         x="-1852.463"
         y="274.25143"
         style="font-style:normal;font-variant:normal;font-weight:normal;font-stretch:normal;font-family:Maagkramp;-inkscape-font-specification:Maagkramp;letter-spacing:-25.49003029px;fill:#ffffff;fill-opacity:1"
         dx="0 0 0 0 0 3.0800002 -8.1100025"><tspan
   style="letter-spacing:-37.89003372px;fill:#ffffff;fill-opacity:1"
   id="tspan5962">L</tspan>og<tspan
   id="tspan5850"
   style="letter-spacing:-96.30039215px;fill:#ffffff;fill-opacity:1">o</tspan><tspan
   style="letter-spacing:-92.970047px;fill:#ffffff;fill-opacity:1"
   id="tspan5688"
   dx="5.0299997">T</tspan><tspan
   style="letter-spacing:-17.62999725px;opacity:0;fill:#ffffff;fill-opacity:0"
   id="tspan6204">o</tspan>ol</tspan></text>
    <g
       id="g6603"
       style="filter:url(#filter4246)"
       transform="translate(0,14)">
      <path
         inkscape:connector-curvature="0"
         id="path6593"
         d="m -1320.8664,382.81414 24.8668,-77.35471 40.9622,-12.91438 100.9157,11.52654 61.5522,-31.70509 92.368,51.86897 10.31773,64.82971 c -74.17063,-19.78865 -10.75723,10.96381 -16.12853,16.44839 l -102.5352,127.23718 -106.6865,-47.77155 -35.6583,-79.66122 -69.8172,-18.47031 z"
         style="fill:#ffffff;fill-opacity:1;fill-rule:evenodd;stroke:#000000;stroke-width:1px;stroke-linecap:butt;stroke-linejoin:miter;stroke-opacity:1"
         sodipodi:nodetypes="ccccccccccccc" />
      <path
         inkscape:connector-curvature="0"
         id="path6408"
         d="m -1209.5298,602.51641 c -13.1688,-0.92301 -24.3026,-6.79642 -32.7218,-17.26165 -3.3941,-4.21905 -4.6719,-7.22831 -6.98,-16.43787 -4.4032,-17.57467 -3.3911,-20.85467 17.1148,-55.39777 l 16.8828,-28.43992 -9.1129,-7.6665 c -15.2987,-12.87071 -32.0211,-35.13613 -34.8405,-46.38947 -0.6398,-2.55394 -6.8258,-6.85583 -31.082,-21.61528 l -30.2832,-18.42675 -0.3138,-8.06706 c -0.9354,-24.06147 7.318,-49.73574 24.8668,-77.35471 11.9409,-18.79302 22.6468,-30.06542 35.1916,-37.05407 4.8344,-2.6932 5.1472,-2.69752 10.6833,-0.14715 3.1366,1.44501 17.1069,7.54724 31.0453,13.56048 19.2084,8.28682 25.9116,10.62865 27.6934,9.67504 7.9681,-4.26438 27.3366,-10.38646 44.3935,-14.0321 19.6846,-4.20731 32.7601,-5.57768 49.6341,-5.20181 l 9.5778,0.21336 8.0079,-13.36181 8.0078,-13.36182 -3.9139,-6.32932 c -9.8927,-15.99769 -11.5377,-33.23068 -4.7531,-49.79289 5.3779,-13.12817 21.174,-39.6079 28.6566,-48.03851 16.9867,-19.13864 44.5036,-28.4491 71.47218,-24.18291 l 5.13623,0.81252 -20.15118,33.65115 -20.15123,33.65114 23.74235,14.20541 23.74246,14.20539 19.9811,-33.3122 c 10.98961,-18.32172 20.40675,-33.05712 20.92698,-32.74534 2.59746,1.55669 10.9521,15.87465 14.45482,24.77229 5.45321,13.85232 6.48649,28.0763 3.15135,43.38042 -2.61255,11.98831 -12.13228,30.43792 -25.21848,48.87444 -15.28046,21.52788 -31.14098,29.53881 -54.41472,27.48417 l -5.38165,-0.4751 -6.48131,10.79009 -6.4813,10.79009 7.2462,10.74508 c 11.26918,16.71068 25.6667,39.7533 26.22096,41.96549 0.80365,3.20751 -8.83212,17.06095 -15.90323,22.86422 -3.5739,2.93313 -8.59792,6.20681 -11.16443,7.27484 -4.5311,1.88555 -4.6752,2.15178 -4.9641,9.17355 -0.392,9.53213 -5.3789,21.84918 -11.5081,28.42363 -3.2532,3.48964 -5.0358,6.66295 -5.2302,9.31098 -0.7294,9.93479 -11.6596,24.31583 -24.3115,31.98704 -5.2732,3.19733 -7.6515,5.63005 -10.3603,10.59763 -3.3142,6.07771 -12.0109,15.05113 -18.1112,18.68744 -1.5088,0.8994 -5.0893,5.21792 -7.9568,9.59673 -6.5156,9.94992 -14.6942,16.03196 -25.0571,18.63373 -6.3728,1.60071 -8.9914,1.51832 -18.0019,-0.56154 l -10.5442,-2.4339 -16.2925,27.28026 c -14.0863,23.5862 -17.3209,28.15887 -23.888,33.76899 -6.5488,5.5946 -8.9219,6.87474 -17.2209,9.28987 -5.9542,1.7328 -11.6884,2.65654 -15.0348,2.42198 z m 102.4941,-95.94558 c 3.2607,-5.07458 3.2791,-10.95582 0.049,-15.21785 -1.4743,-1.94449 -9.506,-8.35197 -17.8484,-14.23883 -12.2191,-8.62242 -16.0562,-10.7019 -19.7366,-10.69575 -9.2917,0.0155 -16.1948,12.32702 -11.2267,20.02227 2.7438,4.25008 30.8867,24.66129 35.5765,25.80272 4.3869,1.06763 10.5634,-1.58928 13.1872,-5.67256 z m 29.54,-26.14043 c 3.1947,-4.12673 3.9424,-10.13494 1.8321,-14.72486 -2.1057,-4.58021 -38.2056,-31.63458 -43.5157,-32.61204 -5.0187,-0.92386 -8.2686,0.16359 -12.093,4.0465 -3.9881,4.04909 -5.4186,11.42629 -3.114,16.05813 1.6986,3.4139 34.0156,28.14296 40.6766,31.12577 4.9825,2.23123 12.9543,0.31693 16.214,-3.8935 z m 26.2488,-24.89904 c 1.6416,-1.44782 3.5201,-4.0311 4.1744,-5.74062 1.3995,-3.6568 -0.2459,-11.29316 -3.1146,-14.45467 -2.3768,-2.61932 -39.9992,-29.81674 -43.7039,-31.59368 -1.4514,-0.69619 -4.9629,-0.61102 -8.1951,0.19875 -4.3623,1.09292 -6.1944,2.25566 -8.0123,5.08482 -3.0305,4.7164 -3.412,11.81122 -0.8331,15.49258 1.8367,2.62164 29.1465,23.21037 40.5421,30.56439 8.1805,5.27923 13.523,5.40439 19.1425,0.44843 z m -127.8581,-34.01831 23.8789,-39.8671 13.6488,-4.11399 c 16.1284,-4.86135 25.0736,-9.74527 41.614,-22.72048 l 11.6918,-9.1717 3.5795,2.78541 c 5.362,4.17227 19.7355,8.86963 27.772,9.07612 6.5431,0.16814 7.3728,0.5464 10.5228,4.79784 3.8132,5.1466 14.3107,11.42835 20.7038,12.38926 7.7306,1.16198 14.961,-0.19413 19.8376,-3.72064 2.4788,-1.79259 4.4042,-3.66947 4.2786,-4.17082 -0.3274,-1.30681 -17.864,-28.22734 -24.8509,-38.14887 -6.7904,-9.64236 -6.3785,-9.42282 -44.7918,-23.87398 -24.8277,-9.34014 -28.4469,-9.85025 -51.7721,-7.29671 -19.4669,2.13115 -52.3302,11.99242 -68.1115,20.43825 -1.7806,0.9529 -9.7106,-1.93295 -33.1373,-12.05895 l -30.7966,-13.31164 -8.0876,9.06229 c -8.4138,9.42761 -23.0588,33.32161 -27.0615,44.1518 -2.4586,6.65275 -6.3505,23.02485 -6.6184,27.84279 -0.1385,2.49145 3.7953,5.3576 28.3377,20.64627 27.2878,16.99892 28.55,17.95467 29.7067,22.49523 1.7509,6.8713 7.6034,17.6626 13.8349,25.50903 6.3129,7.94895 19.0027,19.82432 20.7431,19.41182 0.6593,-0.15633 11.9442,-18.22434 25.0775,-40.15123 z m 143.8546,-5.21039 c 6.3168,-4.71557 6.7314,-15.93371 0.7812,-21.13925 -6.0584,-5.30037 -33.2774,-23.92147 -36.7254,-25.12469 -11.9212,-4.16013 -22.8854,9.90392 -16.0108,20.53767 2.9792,4.60855 34.8228,27.23734 40.0761,28.47912 5.0235,1.18744 7.3106,0.65742 11.8789,-2.75285 z"
         style="fill:#353535;fill-opacity:1" />
    </g>
    <text
       xml:space="preserve"
       style="font-style:normal;font-variant:normal;font-weight:normal;font-stretch:normal;font-size:40px;line-height:125%;font-family:roboto;-inkscape-font-specification:roboto;letter-spacing:0px;word-spacing:0px;fill:#000000;fill-opacity:1;stroke:none;stroke-width:1px;stroke-linecap:butt;stroke-linejoin:miter;stroke-opacity:1"
       x="-1812.2137"
       y="383.6412"
       id="text6847"
       sodipodi:linespacing="125%"><tspan
         sodipodi:role="line"
         id="tspan6849"
         x="-1812.2137"
         y="383.6412" /><tspan
         sodipodi:role="line"
         x="-1812.2137"
         y="433.6412"
         id="tspan6851" /></text>
  </g>
</svg>
