<?xml version="1.0" encoding="UTF-8" standalone="no"?>
<!-- Created with Inkscape (http://www.inkscape.org/) -->
<svg id="svg4902" xmlns:rdf="http://www.w3.org/1999/02/22-rdf-syntax-ns#" xmlns="http://www.w3.org/2000/svg" height="7.774mm" width="7.774mm" version="1.1" xmlns:cc="http://creativecommons.org/ns#" xmlns:dc="http://purl.org/dc/elements/1.1/" viewBox="0 0 27.545609 27.545631">
 <metadata id="metadata4907">
  <rdf:RDF>
   <cc:Work rdf:about="">
    <dc:format>image/svg+xml</dc:format>
    <dc:type rdf:resource="http://purl.org/dc/dcmitype/StillImage"/>
    <dc:title/>
   </cc:Work>
  </rdf:RDF>
 </metadata>
 <g id="layer1" transform="translate(-274.85 -298.63)">
  <g id="g4963" fill="#0ff" transform="matrix(-1 0 0 1 2199.3 29.743)">
   <g id="g4666-6-5" fill="#0ff" transform="matrix(.37544 0 0 .37544 976.92 547.19)">
    <path id="path4160-8-2-2" d="m2466.9-689.54h2.6388l0.9351-0.90192c-3.2735-3.8082-5.2445-8.7522-5.2445-14.13 0-11.992 9.7208-21.713 21.714-21.713 11.992 0 21.713 9.7209 21.713 21.713s-9.7211 21.713-21.713 21.713c-5.3784 0-10.322-1.971-14.13-5.2446l-0.9021 0.93535v2.639l-16.702 16.669-4.9773-4.9774 16.669-16.703zm20.043 0c8.3177 0 15.032-6.7144 15.032-15.032 0-8.3178-6.7145-15.032-15.032-15.032-8.3179 0-15.033 6.7145-15.033 15.032 0 8.318 6.7147 15.032 15.033 15.032zm8.3513-16.703h-16.703v3.3405h16.703z" fill="#fff"/>
   </g>
  </g>
 </g>
</svg>
